<?xml version="1.0" encoding="UTF-8"?>
<svg id="Layer_1" xmlns="http://www.w3.org/2000/svg" version="1.1" viewBox="0 0 512 512">
  <!-- Generator: Adobe Illustrator 29.3.0, SVG Export Plug-In . SVG Version: 2.1.0 Build 146)  -->
  <defs>
    <style>
      .st0 {
        fill: #fff;
      }

      .st1 {
        fill: #11172b;
        fill-rule: evenodd;
      }
    </style>
  </defs>
  <rect class="st0" x="113.1" y="128.1" width="316.1" height="276.5"/>
  <path class="st1" d="M0,256C0,114.6,114.6,0,256,0c141.4,0,256,114.6,256,256,0,141.4-114.6,256-256,256C114.6,512,0,397.4,0,256ZM248.5,197.3c10-10,10-26.2,0-36.2-10-10-26.2-10-36.2,0l-74.6,74.6c-.4.4-.8.8-1.1,1.2-5.3,4.7-8.6,11.5-8.6,19.1s3.3,14.5,8.6,19.1c.4.4.7.8,1.1,1.2l74.6,74.6c10,10,26.2,10,36.2,0,10-10,10-26.2,0-36.2l-33.1-33.1h143c14.1,0,25.6-11.5,25.6-25.6s-11.5-25.6-25.6-25.6h-143s33.1-33.1,33.1-33.1Z"/>
</svg>