<?xml version="1.0" encoding="UTF-8"?>
<svg id="Layer_1" xmlns="http://www.w3.org/2000/svg" version="1.1" viewBox="0 0 512 512">
  <!-- Generator: Adobe Illustrator 29.2.1, SVG Export Plug-In . SVG Version: 2.1.0 Build 116)  -->
  <defs>
    <style>
      .st0 {
        fill: none;
        stroke: #000;
        stroke-miterlimit: 10;
        stroke-width: 35px;
      }
    </style>
  </defs>
  <path class="st0" d="M460.1,86.8c-1.4-1.4-2.8-2.9-4.3-4.3-24.9-24.8-58.7-33.3-90.2-33.6-31.8.1-61.4,8.4-86.3,28.1-7.4,6.1-15,12.5-22.8,19.1-7.8-6.7-15.4-13-22.8-19.1-24.9-19.7-54.4-28-86.3-28.1-31.5.3-65.3,8.8-90.1,33.6-1.4,1.4-2.9,2.9-4.3,4.3-24.7,25-32.9,58.2-33.2,89.7.2,31.8,8.2,61.9,27.7,87.6,6,7.6,12.4,15.4,19,23.3,53.8,65.3,130.7,136.4,190.1,176.9,59.4-40.5,136.3-111.6,190.1-176.9,6.6-7.9,13-15.7,19-23.3,19.6-25.7,27.6-55.8,27.7-87.6-.4-31.5-8.5-64.8-33.2-89.7Z"/>
</svg>