<?xml version="1.0" encoding="UTF-8"?>
<svg id="Layer_1" xmlns="http://www.w3.org/2000/svg" version="1.1" viewBox="0 0 512 512">
  <!-- Generator: Adobe Illustrator 29.2.1, SVG Export Plug-In . SVG Version: 2.1.0 Build 116)  -->
  <defs>
    <style>
      .st0 {
        fill: #ff1d25;
      }
    </style>
  </defs>
  <path class="st0" d="M474.5,73.7c-1.5-1.5-3.1-3.1-4.6-4.6-26.7-26.6-63-35.7-96.8-36.1-34.2.1-65.9,9-92.6,30.2-8,6.5-16.1,13.4-24.5,20.5-8.4-7.1-16.6-14-24.5-20.5-26.7-21.1-58.4-30-92.6-30.2-33.8.4-70.1,9.5-96.8,36.1-1.6,1.5-3.1,3.1-4.6,4.6C11,100.5,2.2,136.2,1.8,170c.2,34.2,8.8,66.5,29.8,94.1,6.5,8.2,13.3,16.5,20.4,25,57.8,70.1,140.3,146.5,204.1,190,63.8-43.5,146.3-119.8,204-190,7.1-8.5,13.9-16.8,20.4-25,21-27.6,29.6-59.9,29.8-94.1-.4-33.8-9.2-69.5-35.7-96.3Z"/>
</svg>