<?xml version="1.0" encoding="UTF-8"?>
<svg id="Layer_1" xmlns="http://www.w3.org/2000/svg" version="1.1" viewBox="0 0 24 24">
  <!-- Generator: Adobe Illustrator 29.3.0, SVG Export Plug-In . SVG Version: 2.1.0 Build 146)  -->
  <defs>
    <style>
      .st0 {
        fill: #fff;
      }

      .st1 {
        fill: #11172b;
      }
    </style>
  </defs>
  <circle class="st1" cx="12.3" cy="12.1" r="11.4"/>
  <path class="st0" d="M12,2c5.5,0,10,4.5,10,10s-4.5,10-10,10S2,17.5,2,12,6.5,2,12,2ZM12,0C5.4,0,0,5.4,0,12s5.4,12,12,12,12-5.4,12-12S18.6,0,12,0ZM12,7.1h2.4c1.6,0,2.4.8,2.5,2.5v4.8c0,1.6-.8,2.4-2.5,2.5h-4.8c-1.6,0-2.4-.8-2.5-2.5v-4.8c0-1.6.8-2.4,2.5-2.5.6,0,.8,0,2.4,0ZM12,6h-2.5c-2.2,0-3.4,1.3-3.5,3.5v5c0,2.2,1.3,3.4,3.5,3.5h5c2.2-.1,3.4-1.3,3.5-3.5v-5c0-2.2-1.3-3.4-3.5-3.5h-2.5ZM12,8.9c-1.7,0-3.1,1.4-3.1,3.1s1.4,3.1,3.1,3.1,3.1-1.4,3.1-3.1-1.4-3.1-3.1-3.1ZM12,14c-1.1,0-2-.9-2-2s.9-2,2-2,2,.9,2,2-.9,2-2,2ZM15.2,8.1c-.4,0-.7.3-.7.7s.3.7.7.7.7-.3.7-.7-.3-.7-.7-.7Z"/>
</svg>