<?xml version="1.0" encoding="UTF-8"?>
<svg id="Layer_1" xmlns="http://www.w3.org/2000/svg" version="1.1" viewBox="0 0 24 24">
  <!-- Generator: Adobe Illustrator 29.1.0, SVG Export Plug-In . SVG Version: 2.1.0 Build 142)  -->
  <defs>
    <style>
      .st0 {
        fill: #fff;
        fill-rule: evenodd;
      }
    </style>
  </defs>
  <path class="st0" d="M12,0C5.4,0,0,5.4,0,12s5.4,12,12,12,12-5.4,12-12S18.6,0,12,0ZM12,2c5.5,0,10,4.5,10,10s-4.5,10-10,10S2,17.5,2,12,6.5,2,12,2ZM12,6.5c-3.3,0-6,2.5-6,5.6s.9,3.3,2.2,4.3v2.1l2-1.1c.5.2,1.1.2,1.7.2,3.3,0,6-2.5,6-5.6s-2.7-5.6-6-5.6ZM12.6,14l-1.5-1.6-3,1.6,3.3-3.5,1.6,1.6,2.9-1.6s-3.3,3.5-3.3,3.5Z"/>
</svg>