<?xml version="1.0" encoding="UTF-8"?>
<svg id="Layer_1" xmlns="http://www.w3.org/2000/svg" version="1.1" viewBox="0 0 24 24">
  <!-- Generator: Adobe Illustrator 29.3.0, SVG Export Plug-In . SVG Version: 2.1.0 Build 146)  -->
  <defs>
    <style>
      .st0 {
        fill: #fff;
      }

      .st1 {
        fill: #11172b;
      }
    </style>
  </defs>
  <circle class="st1" cx="12.2" cy="12.2" r="11.4"/>
  <path class="st0" d="M12,2c5.5,0,10,4.5,10,10s-4.5,10-10,10S2,17.5,2,12,6.5,2,12,2ZM12,0C5.4,0,0,5.4,0,12s5.4,12,12,12,12-5.4,12-12S18.6,0,12,0ZM12,12.6l-6-4.6h12l-6,4.6ZM12,13.9l-6-4.6v6.8h12v-6.8s-6,4.6-6,4.6Z"/>
</svg>