<?xml version="1.0" encoding="UTF-8"?>
<svg id="Layer_1" xmlns="http://www.w3.org/2000/svg" version="1.1" viewBox="0 0 512 137.8">
  <!-- Generator: Adobe Illustrator 29.2.1, SVG Export Plug-In . SVG Version: 2.1.0 Build 116)  -->
  <defs>
    <style>
      .st0 {
        fill: #fff;
        stroke: #fff;
      }

      .st0, .st1 {
        stroke-miterlimit: 10;
        stroke-width: 5px;
      }

      .st1 {
        fill: #f8d849;
        stroke: #f8d849;
      }
    </style>
  </defs>
  <path class="st1" d="M72.4,80.7c0,2.9-.7,5.5-2.1,7.9-1.4,2.4-3.3,4.3-5.7,5.7-2.4,1.4-5,2.1-7.9,2.1H8.9v-7.9h47.8c2.2,0,4.1-.8,5.6-2.3,1.5-1.5,2.3-3.4,2.3-5.5s-.8-4-2.3-5.5c-1.5-1.5-3.4-2.3-5.6-2.3H24.6c-2.9,0-5.5-.7-7.9-2.1-2.4-1.4-4.3-3.3-5.7-5.7-1.4-2.4-2.1-5-2.1-7.9s.7-5.5,2.1-7.9c1.4-2.4,3.3-4.3,5.7-5.7,2.4-1.4,5-2.1,7.9-2.1h43.9v7.9H24.6c-2.1,0-4,.8-5.5,2.3s-2.3,3.4-2.3,5.5.8,4,2.3,5.5c1.5,1.5,3.4,2.3,5.5,2.3h32.1c2.9,0,5.6.7,7.9,2.1,2.4,1.4,4.2,3.3,5.7,5.7,1.4,2.4,2.1,5,2.1,7.9Z"/>
  <path class="st1" d="M139.2,96.4h-35.4c-3.8,0-7.3-.7-10.4-2.1-3.1-1.4-5.8-3.4-8-5.9-2.2-2.5-3.9-5.4-5.1-8.8-1.2-3.3-1.8-6.9-1.8-10.7s.6-7.3,1.8-10.6c1.2-3.3,2.9-6.3,5.1-8.8,2.2-2.5,4.9-4.5,8-5.9,3.1-1.4,6.5-2.1,10.4-2.1h35.4v7.9h-35.4c-3.6,0-6.7.9-9.3,2.6-2.6,1.8-4.6,4.1-6,7.1s-2.1,6.3-2.1,9.9.7,6.9,2.1,9.9c1.4,3,3.4,5.3,6,7.1,2.6,1.8,5.7,2.7,9.3,2.7h35.4v7.9Z"/>
  <path class="st1" d="M205.6,96.4h-56.9v-55h56.9v7.9h-49v39.3h49v7.9ZM198.9,72.8h-38.4v-7.9h38.4v7.9Z"/>
  <path class="st1" d="M223.2,96.4h-7.9v-55h3.9c3.8,0,8,.7,12.5,2.2,4.5,1.5,9,3.5,13.5,6.2,4.5,2.7,8.8,5.9,12.8,9.5,4,3.7,7.5,7.8,10.3,12.3v-30.3h7.9v55h-7.9c0-4.8-1-9.4-2.9-13.9-2-4.4-4.6-8.5-7.8-12.3-3.2-3.7-6.9-7.1-10.8-10-4-2.9-8-5.3-12.1-7.2-4.1-1.9-7.9-3.1-11.5-3.6v46.8Z"/>
  <path class="st0" d="M346.3,96.4h-56.9v-55h56.9v7.9h-49v39.3h49v7.9ZM339.6,72.8h-38.4v-7.9h38.4v7.9Z"/>
  <path class="st0" d="M395.6,96.4h-7.9v-27.5c0-3.6-.9-6.9-2.6-9.9-1.8-3-4.1-5.4-7.1-7.1-3-1.8-6.3-2.6-9.9-2.6h-4.2v47.2h-7.9v-55h12.1c5,0,9.5,1.2,13.7,3.7,4.2,2.5,7.5,5.7,9.9,9.7,2.4-4,5.7-7.2,9.9-9.7,4.2-2.5,8.7-3.7,13.7-3.7h12.1v55h-7.9v-47.2h-4.2c-3.6,0-6.9.9-9.9,2.6-3,1.8-5.3,4.1-7.1,7.1-1.8,3-2.7,6.3-2.7,9.9v27.5Z"/>
  <path class="st0" d="M503.1,96.4h-7.9v-15.7h-43.9v-7.9h43.9v-23.6h-28.2c-3.6,0-6.8.9-9.8,2.6-3,1.8-5.4,4.1-7.1,7.1-1.8,3-2.6,6.3-2.6,9.9v27.5h-7.9v-27.5c0-3.8.7-7.3,2.1-10.6,1.4-3.3,3.4-6.3,5.9-8.8,2.5-2.5,5.4-4.5,8.8-5.9,3.3-1.4,6.9-2.1,10.6-2.1h36.1v55Z"/>
</svg>