<?xml version="1.0" encoding="UTF-8"?>
<svg id="Layer_1" xmlns="http://www.w3.org/2000/svg" version="1.1" viewBox="0 0 24 24">
  <!-- Generator: Adobe Illustrator 29.1.0, SVG Export Plug-In . SVG Version: 2.1.0 Build 142)  -->
  <defs>
    <style>
      .st0 {
        fill: #172045;
      }

      .st1 {
        fill: #fff;
      }
    </style>
  </defs>
  <circle class="st1" cx="12" cy="12" r="12"/>
  <g>
    <path class="st0" d="M13.7,14.4c-1.1.5-3.4-3.9-2.3-4.5l1-.5-1.7-3.4-1.1.5c-3.6,1.9,2.1,13,5.8,11.3l1.1-.5-1.8-3.4-1,.5Z"/>
    <path class="st0" d="M12,0C5.4,0,0,5.4,0,12s5.4,12,12,12,12-5.4,12-12S18.6,0,12,0ZM12,22c-5.5,0-10-4.5-10-10S6.5,2,12,2s10,4.5,10,10-4.5,10-10,10Z"/>
  </g>
</svg>